<svg width="178" height="58" viewBox="0 0 178 58" fill="none" xmlns="http://www.w3.org/2000/svg">
<g clip-path="url(#clip0_62_120)">
<path d="M103.427 12.093H101.825L97.2752 24.2472H99.8046L100.68 21.6511H105.176L106.057 24.2472H108.577L104.02 12.0938L103.427 12.093ZM101.334 19.7144L102.923 15.0056L104.52 19.7144H101.334Z" fill="#37635A"/>
<path d="M111.793 17.8754C111.839 17.792 111.888 17.7111 111.943 17.6357C112.109 17.4072 112.316 17.2311 112.561 17.1058C112.805 16.9804 113.089 16.9177 113.412 16.9177C113.735 16.9177 114.006 16.9637 114.226 17.0558C114.446 17.1478 114.613 17.3065 114.727 17.5318C114.841 17.7571 114.898 18.0674 114.898 18.4625V24.2472H117.202V18.4712C117.202 17.631 117.082 16.9614 116.844 16.4639C116.604 15.9656 116.272 15.6054 115.846 15.3833C115.42 15.1611 114.918 15.0493 114.34 15.0493C113.627 15.0493 113.003 15.2286 112.466 15.588C112.19 15.7728 111.945 15.9974 111.733 16.2608L111.66 15.2167H109.507V24.248H111.794V17.8762L111.793 17.8754Z" fill="#37635A"/>
<path d="M120.425 23.8171C120.954 24.2154 121.588 24.4138 122.328 24.4138C123.069 24.4138 123.656 24.2186 124.14 23.829C124.334 23.6727 124.511 23.4926 124.672 23.2903L124.782 24.2464H126.861V11.425H124.557V16.0339C124.429 15.8863 124.291 15.7514 124.144 15.6316C123.662 15.242 123.063 15.0477 122.345 15.0477C121.627 15.0477 120.954 15.2413 120.425 15.6276C119.897 16.0148 119.493 16.5543 119.215 17.247C118.937 17.9396 118.798 18.7449 118.798 19.6637V19.839C118.798 20.7126 118.937 21.4949 119.215 22.1843C119.494 22.8746 119.897 23.4189 120.425 23.8171ZM121.093 19.6645C121.093 19.1472 121.153 18.6807 121.272 18.2665C121.392 17.8523 121.587 17.5239 121.856 17.2819C122.126 17.0399 122.481 16.9185 122.92 16.9185C123.238 16.9185 123.513 16.9725 123.747 17.0812C123.981 17.1899 124.177 17.3438 124.336 17.5445C124.419 17.65 124.493 17.7674 124.557 17.896V21.5488C124.41 21.8471 124.21 22.0851 123.956 22.2613C123.683 22.4509 123.332 22.5453 122.904 22.5453C122.475 22.5453 122.11 22.4239 121.844 22.1819C121.576 21.94 121.384 21.6147 121.268 21.2053C121.151 20.7959 121.092 20.3412 121.092 19.8406V19.6653L121.093 19.6645Z" fill="#37635A"/>
<path d="M131.178 18.2577C131.192 18.2252 131.207 18.1927 131.224 18.1617C131.372 17.8777 131.593 17.6611 131.887 17.5104C132.183 17.3604 132.552 17.285 132.997 17.285C133.131 17.285 133.276 17.2922 133.431 17.3057C133.587 17.3199 133.729 17.335 133.857 17.3517L133.883 15.1563C133.799 15.123 133.685 15.0968 133.541 15.077C133.396 15.0572 133.262 15.0476 133.14 15.0476C132.561 15.0476 132.076 15.223 131.683 15.5737C131.467 15.7673 131.28 16.0021 131.122 16.275L131.053 15.215H128.883V24.2463H131.178V18.2577Z" fill="#37635A"/>
<path d="M138.851 18.7291C137.494 18.7291 136.46 18.9877 135.75 19.5058C135.041 20.0231 134.687 20.7578 134.687 21.7091C134.687 22.2319 134.821 22.6985 135.091 23.1071C135.361 23.5164 135.728 23.8362 136.193 24.0671C136.658 24.298 137.179 24.4138 137.759 24.4138C138.209 24.4138 138.606 24.344 138.948 24.2051C139.29 24.0663 139.583 23.8878 139.825 23.6712C139.915 23.5902 139.998 23.5061 140.075 23.4205C140.131 23.7497 140.209 24.0258 140.313 24.2472H142.641V24.1052C142.525 23.8711 142.435 23.5958 142.374 23.2784C142.313 22.9611 142.282 22.5636 142.282 22.0852V18.2038C142.282 17.5025 142.127 16.9185 141.818 16.4512C141.51 15.9839 141.084 15.6332 140.541 15.3991C139.998 15.1651 139.382 15.0485 138.692 15.0485C137.924 15.0485 137.256 15.1794 136.685 15.4404C136.115 15.7022 135.674 16.0481 135.362 16.4798C135.051 16.9114 134.895 17.3827 134.895 17.8944H137.19C137.19 17.6603 137.246 17.4604 137.357 17.293C137.468 17.1264 137.628 16.9955 137.837 16.9011C138.046 16.8066 138.289 16.759 138.568 16.759C139.052 16.759 139.408 16.8884 139.637 17.147C139.865 17.4057 139.979 17.7524 139.979 18.1864V18.7291H138.851ZM139.226 22.4104C138.948 22.5604 138.619 22.6358 138.242 22.6358C137.864 22.6358 137.539 22.5302 137.319 22.3184C137.099 22.1066 136.989 21.8424 136.989 21.525C136.989 21.1077 137.148 20.7657 137.469 20.4983C137.789 20.231 138.285 20.0977 138.959 20.0977H139.977V21.6916C139.948 21.7464 139.913 21.8019 139.872 21.859C139.719 22.0764 139.503 22.2597 139.226 22.4097L139.226 22.4104Z" fill="#37635A"/>
<path d="M145.547 23.8171C146.076 24.2154 146.711 24.4138 147.451 24.4138C148.191 24.4138 148.778 24.2186 149.262 23.829C149.456 23.6727 149.633 23.4926 149.794 23.2903L149.905 24.2464H151.983V11.425H149.679V16.0339C149.551 15.8863 149.414 15.7514 149.266 15.6316C148.784 15.242 148.185 15.0477 147.467 15.0477C146.749 15.0477 146.076 15.2413 145.547 15.6276C145.019 16.0148 144.615 16.5543 144.337 17.247C144.059 17.9396 143.92 18.7449 143.92 19.6637V19.839C143.92 20.7126 144.059 21.4949 144.337 22.1843C144.616 22.8746 145.019 23.4189 145.547 23.8171ZM146.215 19.6645C146.215 19.1472 146.275 18.6807 146.395 18.2665C146.515 17.8523 146.709 17.5239 146.979 17.2819C147.248 17.0399 147.603 16.9185 148.043 16.9185C148.36 16.9185 148.635 16.9725 148.869 17.0812C149.103 17.1899 149.299 17.3438 149.458 17.5445C149.541 17.65 149.615 17.7674 149.679 17.896V21.5488C149.532 21.8471 149.332 22.0851 149.078 22.2613C148.805 22.4509 148.454 22.5453 148.026 22.5453C147.598 22.5453 147.233 22.4239 146.966 22.1819C146.699 21.94 146.507 21.6147 146.39 21.2053C146.273 20.7959 146.215 20.3412 146.215 19.8406V19.6653L146.215 19.6645Z" fill="#37635A"/>
<path d="M158.103 24.4138C158.993 24.4138 159.729 24.2424 160.311 23.9004C160.893 23.5585 161.325 23.1784 161.609 22.7611L160.457 21.517C160.19 21.8677 159.868 22.1295 159.493 22.3017C159.118 22.4739 158.701 22.5604 158.245 22.5604C157.789 22.5604 157.363 22.4517 157.018 22.2351C156.672 22.0177 156.411 21.7202 156.233 21.3417C156.108 21.0767 156.028 20.7847 155.991 20.465H161.792V19.4883C161.792 18.6037 161.643 17.8285 161.346 17.1636C161.048 16.4988 160.609 15.9799 160.027 15.607C159.445 15.2341 158.718 15.0476 157.844 15.0476C156.971 15.0476 156.286 15.2436 155.658 15.6363C155.029 16.0291 154.541 16.5757 154.193 17.2763C153.846 17.9777 153.671 18.7901 153.671 19.7136V20.0389C153.671 20.8514 153.848 21.5877 154.201 22.247C154.554 22.9063 155.063 23.4323 155.728 23.8243C156.393 24.217 157.185 24.4138 158.103 24.4138ZM156.78 17.2557C157.055 17.0137 157.407 16.8923 157.836 16.8923C158.231 16.8923 158.55 16.9732 158.796 17.1343C159.041 17.2961 159.222 17.5127 159.338 17.7857C159.455 18.0586 159.519 18.3593 159.53 18.687V18.8703H156.026C156.059 18.6489 156.105 18.441 156.167 18.2482C156.3 17.8285 156.505 17.4969 156.78 17.2549L156.78 17.2557Z" fill="#37635A"/>
<path d="M98.1225 36.0332C97.925 36.4005 97.8266 36.8289 97.8266 37.3185C97.8266 37.9865 97.9861 38.58 98.3066 39.1005C98.6264 39.6209 99.0841 40.0287 99.68 40.3231C100.275 40.6182 100.98 40.7658 101.792 40.7658C102.477 40.7658 103.112 40.6619 103.699 40.4524C104.117 40.304 104.515 40.0994 104.894 39.8391L105.54 40.5897H108.161L106.356 38.4792C106.641 38.1063 106.863 37.6953 107.022 37.2423C107.297 36.4576 107.436 35.6031 107.436 34.6796H105.465C105.465 35.3088 105.366 35.8816 105.165 36.3989C105.104 36.556 105.036 36.7052 104.962 36.8496L102.793 34.3131L103.587 33.745C103.91 33.5109 104.192 33.2594 104.434 32.9897C104.676 32.7199 104.866 32.4248 105.006 32.105C105.145 31.7853 105.215 31.4362 105.215 31.0577C105.215 30.5571 105.089 30.0953 104.839 29.6724C104.589 29.2496 104.233 28.9084 103.771 28.6498C103.309 28.3911 102.766 28.2618 102.143 28.2618C101.48 28.2618 100.903 28.3927 100.411 28.6537C99.918 28.9155 99.5372 29.2829 99.2674 29.7558C98.9977 30.2286 98.8628 30.7856 98.8628 31.4251C98.8628 32.0646 99.0492 32.6469 99.4221 33.2198C99.6062 33.5022 99.818 33.8045 100.058 34.125C99.6419 34.4233 99.2714 34.7185 98.9461 35.0097C98.5954 35.3239 98.3217 35.665 98.1241 36.0324L98.1225 36.0332ZM103.629 38.3689C103.494 38.4586 103.355 38.5387 103.21 38.6085C102.787 38.8117 102.35 38.9132 101.899 38.9132C101.532 38.9132 101.216 38.8394 100.952 38.6919C100.688 38.5443 100.484 38.3396 100.342 38.0786C100.2 37.8167 100.13 37.5224 100.13 37.1939C100.13 37.0495 100.148 36.8932 100.184 36.7266C100.22 36.56 100.298 36.3831 100.418 36.1966C100.538 36.0102 100.714 35.8221 100.948 35.6333L101.151 35.4881L103.629 38.3689ZM101.236 30.4904C101.433 30.2397 101.733 30.1152 102.133 30.1152C102.501 30.1152 102.785 30.2278 102.985 30.4532C103.184 30.6785 103.285 30.9244 103.285 31.1918C103.285 31.4592 103.221 31.7067 103.093 31.9178C102.965 32.1296 102.729 32.3494 102.384 32.5771L101.717 33.019C101.592 32.8572 101.476 32.7017 101.369 32.5525C101.083 32.1518 100.939 31.7654 100.939 31.3925C100.939 31.0419 101.038 30.7404 101.236 30.4904Z" fill="#37635A"/>
<path d="M124.156 40.5913H126.553V28.4371H123.43L120.2 37.4026L116.961 28.4371H113.848V40.5913H116.235V37.0686L116 31.4283L119.374 40.5913H121.018L124.391 31.4473L124.156 37.0686V40.5913Z" fill="#37635A"/>
<path d="M135.978 38.4292V34.5479C135.978 33.8465 135.823 33.2626 135.515 32.7953C135.206 32.328 134.78 31.9773 134.237 31.7432C133.695 31.5092 133.078 31.3925 132.389 31.3925C131.621 31.3925 130.952 31.5235 130.382 31.7845C129.811 32.0463 129.37 32.3922 129.059 32.8238C128.747 33.2555 128.592 33.7267 128.592 34.2385H130.887C130.887 34.0044 130.942 33.8045 131.054 33.6371C131.165 33.4705 131.325 33.3396 131.534 33.2451C131.742 33.1507 131.986 33.1031 132.264 33.1031C132.748 33.1031 133.104 33.2324 133.333 33.4911C133.561 33.7497 133.675 34.0965 133.675 34.5305V35.0731H132.548C131.191 35.0731 130.157 35.3318 129.448 35.8499C128.738 36.3672 128.384 37.1019 128.384 38.0532C128.384 38.576 128.519 39.0425 128.788 39.4511C129.058 39.8605 129.425 40.1803 129.89 40.4112C130.355 40.642 130.877 40.7579 131.456 40.7579C131.906 40.7579 132.303 40.6881 132.645 40.5492C132.987 40.4104 133.28 40.2318 133.522 40.0152C133.612 39.9343 133.695 39.8502 133.773 39.7645C133.828 40.0938 133.907 40.3699 134.01 40.5913H136.338V40.4492C136.222 40.2152 136.132 39.9399 136.071 39.6225C136.01 39.3052 135.978 38.9077 135.978 38.4292ZM132.923 38.7545C132.644 38.9045 132.316 38.9799 131.938 38.9799C131.561 38.9799 131.235 38.8743 131.015 38.6625C130.796 38.4507 130.685 38.1865 130.685 37.8691C130.685 37.4518 130.845 37.1098 131.165 36.8424C131.485 36.5751 131.982 36.4418 132.655 36.4418H133.673V38.0357C133.644 38.0905 133.609 38.146 133.569 38.2031C133.415 38.4205 133.2 38.6038 132.922 38.7537L132.923 38.7545Z" fill="#37635A"/>
<path d="M140.212 28.3538C139.978 28.1253 139.661 28.0119 139.26 28.0119C138.86 28.0119 138.552 28.1261 138.321 28.3538C138.09 28.5823 137.974 28.8687 137.974 29.2139C137.974 29.559 138.089 29.8375 138.321 30.0652C138.552 30.2937 138.865 30.4072 139.26 30.4072C139.656 30.4072 139.978 30.2929 140.212 30.0652C140.446 29.8367 140.562 29.5535 140.562 29.2139C140.562 28.8743 140.446 28.5823 140.212 28.3538Z" fill="#37635A"/>
<path d="M140.42 31.5592H138.116V40.5905H140.42V31.5592Z" fill="#37635A"/>
<path d="M147.329 40.0152C147.42 39.9343 147.502 39.8502 147.58 39.7645C147.636 40.0938 147.714 40.3699 147.817 40.5913H150.146V40.4492C150.029 40.2152 149.94 39.9399 149.879 39.6225C149.818 39.3052 149.787 38.9077 149.787 38.4292V34.5479C149.787 33.8465 149.632 33.2626 149.323 32.7953C149.015 32.328 148.589 31.9773 148.046 31.7432C147.503 31.5092 146.887 31.3925 146.197 31.3925C145.429 31.3925 144.76 31.5235 144.19 31.7845C143.619 32.0463 143.178 32.3922 142.867 32.8238C142.555 33.2555 142.4 33.7267 142.4 34.2385H144.695C144.695 34.0044 144.751 33.8045 144.862 33.6371C144.973 33.4705 145.133 33.3396 145.342 33.2451C145.551 33.1507 145.794 33.1031 146.073 33.1031C146.557 33.1031 146.913 33.2324 147.141 33.4911C147.37 33.7497 147.483 34.0965 147.483 34.5305V35.0731H146.357C144.999 35.0731 143.965 35.3318 143.256 35.8499C142.547 36.3672 142.192 37.1019 142.192 38.0532C142.192 38.576 142.327 39.0425 142.597 39.4511C142.866 39.8605 143.234 40.1803 143.699 40.4112C144.164 40.642 144.685 40.7579 145.264 40.7579C145.715 40.7579 146.112 40.6881 146.453 40.5492C146.795 40.4104 147.087 40.2318 147.329 40.0152ZM144.825 38.6633C144.606 38.4514 144.495 38.1872 144.495 37.8699C144.495 37.4526 144.655 37.1106 144.975 36.8432C145.295 36.5758 145.792 36.4426 146.465 36.4426H147.483V38.0365C147.454 38.0912 147.419 38.1468 147.379 38.2039C147.225 38.4213 147.01 38.6046 146.732 38.7545C146.453 38.9045 146.125 38.9799 145.747 38.9799C145.37 38.9799 145.044 38.8743 144.825 38.6625L144.825 38.6633Z" fill="#37635A"/>
<path d="M103.427 44.7812H101.825L97.2752 56.9354H99.8046L100.68 54.3393H105.176L106.057 56.9354H108.577L104.02 44.782L103.427 44.7812ZM101.334 52.4026L102.923 47.6938L104.52 52.4026H101.334Z" fill="#37635A"/>
<path d="M115.082 48.7229C114.953 48.5753 114.816 48.4404 114.668 48.3206C114.187 47.931 113.588 47.7367 112.87 47.7367C112.151 47.7367 111.478 47.9302 110.949 48.3166C110.421 48.7038 110.017 49.2433 109.74 49.936C109.461 50.6286 109.322 51.4339 109.322 52.3527V52.528C109.322 53.4016 109.461 54.1839 109.74 54.8733C110.018 55.5636 110.421 56.1071 110.949 56.5053C111.478 56.9036 112.113 57.102 112.853 57.102C113.593 57.102 114.18 56.9068 114.664 56.5173C114.859 56.3609 115.036 56.1808 115.197 55.9785L115.307 56.9346H117.386V44.1132H115.082V48.7229ZM114.48 54.9487C114.207 55.1383 113.856 55.2327 113.428 55.2327C113 55.2327 112.635 55.1113 112.368 54.8694C112.101 54.6274 111.909 54.3021 111.792 53.8927C111.675 53.4833 111.617 53.0287 111.617 52.528V52.3527C111.617 51.8354 111.676 51.3689 111.796 50.9547C111.916 50.5405 112.11 50.2121 112.38 49.9701C112.65 49.7281 113.004 49.6067 113.444 49.6067C113.761 49.6067 114.037 49.6607 114.271 49.7694C114.505 49.8781 114.701 50.032 114.859 50.2327C114.943 50.3382 115.016 50.4557 115.081 50.5842V54.237C114.933 54.5353 114.733 54.7734 114.479 54.9495L114.48 54.9487Z" fill="#37635A"/>
<path d="M122.733 54.099L120.968 47.9033H118.572L121.652 56.9354H123.798L126.87 47.9033H124.474L122.733 54.099Z" fill="#37635A"/>
<path d="M134.108 48.3372C133.473 47.9366 132.7 47.7358 131.787 47.7358C130.875 47.7358 130.128 47.9366 129.496 48.3372C128.865 48.7379 128.382 49.2846 128.048 49.9772C127.714 50.6698 127.547 51.4561 127.547 52.3352V52.5105C127.547 53.3841 127.714 54.1688 128.048 54.8646C128.382 55.5604 128.866 56.107 129.501 56.5045C130.136 56.9028 130.903 57.1012 131.805 57.1012C132.707 57.1012 133.481 56.902 134.113 56.5045C134.744 56.107 135.226 55.5596 135.557 54.8646C135.888 54.1688 136.054 53.3841 136.054 52.5105V52.3352C136.054 51.4561 135.888 50.6698 135.557 49.9772C135.226 49.2846 134.742 48.7379 134.108 48.3372ZM133.757 52.5105C133.757 53.0112 133.692 53.4706 133.561 53.8879C133.431 54.3052 133.222 54.6377 132.935 54.8852C132.649 55.1327 132.272 55.2565 131.804 55.2565C131.336 55.2565 130.96 55.1327 130.673 54.8852C130.386 54.6377 130.178 54.3052 130.047 53.8879C129.916 53.4706 129.851 53.0112 129.851 52.5105V52.3352C129.851 51.8401 129.915 51.3839 130.043 50.9666C130.17 50.5492 130.378 50.2136 130.665 49.9605C130.951 49.7074 131.326 49.5805 131.787 49.5805C132.249 49.5805 132.648 49.7074 132.935 49.9605C133.222 50.2136 133.431 50.5492 133.561 50.9666C133.692 51.3839 133.757 51.8401 133.757 52.3352V52.5105Z" fill="#37635A"/>
<path d="M139.74 50.9793C139.837 50.5651 140.017 50.2279 140.278 49.9693C140.54 49.7106 140.916 49.5813 141.405 49.5813C141.745 49.5813 142.033 49.6551 142.269 49.8027C142.505 49.9502 142.688 50.1494 142.816 50.3993C142.943 50.65 143.013 50.9253 143.024 51.226H145.178C145.172 50.5191 145.011 49.9042 144.694 49.3814C144.376 48.8585 143.94 48.4539 143.383 48.1667C142.827 47.8802 142.178 47.7366 141.438 47.7366C140.515 47.7366 139.747 47.9397 139.134 48.346C138.522 48.7522 138.063 49.3004 137.757 49.9907C137.451 50.681 137.298 51.449 137.298 52.2947V52.5455C137.298 53.3912 137.451 54.1592 137.757 54.8495C138.063 55.5398 138.522 56.088 139.134 56.4942C139.746 56.9004 140.517 57.1035 141.446 57.1035C142.142 57.1035 142.768 56.9615 143.324 56.6775C143.88 56.3935 144.327 56.0071 144.664 55.5175C145.001 55.028 145.172 54.471 145.178 53.8482H143.024C143.013 54.1267 142.938 54.3727 142.799 54.5869C142.66 54.8011 142.471 54.9669 142.232 55.0835C141.992 55.2002 141.72 55.2589 141.414 55.2589C140.919 55.2589 140.539 55.1312 140.274 54.8749C140.01 54.6186 139.831 54.2854 139.736 53.8736C139.641 53.4618 139.594 53.0191 139.594 52.5462V52.2955C139.594 51.8338 139.642 51.3958 139.74 50.9809V50.9793Z" fill="#37635A"/>
<path d="M153.928 54.7733V50.892C153.928 50.1906 153.773 49.6067 153.465 49.1394C153.156 48.6721 152.73 48.3214 152.187 48.0873C151.645 47.8533 151.028 47.7366 150.339 47.7366C149.571 47.7366 148.902 47.8675 148.331 48.1286C147.761 48.3904 147.32 48.7363 147.009 49.1679C146.697 49.5995 146.542 50.0708 146.542 50.5826H148.837C148.837 50.3485 148.892 50.1486 149.003 49.9812C149.115 49.8146 149.275 49.6836 149.483 49.5892C149.692 49.4948 149.936 49.4472 150.214 49.4472C150.698 49.4472 151.054 49.5765 151.283 49.8352C151.511 50.0938 151.625 50.4406 151.625 50.8745V51.4172H150.498C149.141 51.4172 148.107 51.6759 147.398 52.194C146.688 52.7113 146.334 53.446 146.334 54.3973C146.334 54.9201 146.469 55.3866 146.738 55.7952C147.008 56.2046 147.375 56.5244 147.84 56.7552C148.305 56.9861 148.827 57.102 149.406 57.102C149.856 57.102 150.253 57.0321 150.595 56.8933C150.937 56.7545 151.23 56.5759 151.472 56.3593C151.562 56.2784 151.645 56.1943 151.722 56.1086C151.778 56.4379 151.857 56.714 151.96 56.9353H154.288V56.7933C154.172 56.5593 154.082 56.284 154.021 55.9666C153.96 55.6492 153.928 55.2517 153.928 54.7733ZM150.873 55.0986C150.594 55.2486 150.266 55.3239 149.888 55.3239C149.51 55.3239 149.185 55.2184 148.965 55.0066C148.746 54.7947 148.635 54.5305 148.635 54.2132C148.635 53.7959 148.795 53.4539 149.115 53.1865C149.435 52.9191 149.932 52.7859 150.605 52.7859H151.623V54.3798C151.594 54.4345 151.559 54.4901 151.519 54.5472C151.365 54.7646 151.15 54.9479 150.872 55.0978L150.873 55.0986Z" fill="#37635A"/>
<path d="M157.999 50.9793C158.097 50.5651 158.276 50.2279 158.538 49.9693C158.8 49.7106 159.175 49.5813 159.664 49.5813C160.004 49.5813 160.292 49.6551 160.528 49.8027C160.765 49.9502 160.947 50.1494 161.075 50.3993C161.203 50.65 161.273 50.9253 161.284 51.226H163.437C163.431 50.5191 163.27 49.9042 162.953 49.3814C162.636 48.8585 162.199 48.4539 161.642 48.1667C161.086 47.8802 160.437 47.7366 159.698 47.7366C158.774 47.7366 158.006 47.9397 157.394 48.346C156.781 48.7522 156.323 49.3004 156.016 49.9907C155.71 50.681 155.557 51.449 155.557 52.2947V52.5455C155.557 53.3912 155.71 54.1592 156.016 54.8495C156.323 55.5398 156.781 56.088 157.394 56.4942C158.005 56.9004 158.777 57.1035 159.706 57.1035C160.401 57.1035 161.027 56.9615 161.584 56.6775C162.14 56.3935 162.587 56.0071 162.924 55.5175C163.26 55.028 163.431 54.471 163.437 53.8482H161.284C161.273 54.1267 161.197 54.3727 161.058 54.5869C160.92 54.8011 160.73 54.9669 160.491 55.0835C160.252 55.2002 159.979 55.2589 159.673 55.2589C159.178 55.2589 158.798 55.1312 158.534 54.8749C158.27 54.6186 158.09 54.2854 157.995 53.8736C157.901 53.4618 157.853 53.0191 157.853 52.5462V52.2955C157.853 51.8338 157.901 51.3958 157.999 50.9809V50.9793Z" fill="#37635A"/>
<path d="M167.37 47.9033H165.066V56.9346H167.37V47.9033Z" fill="#37635A"/>
<path d="M166.21 44.356C165.815 44.356 165.501 44.4702 165.271 44.6979C165.04 44.9264 164.924 45.2128 164.924 45.558C164.924 45.9031 165.039 46.1816 165.271 46.4093C165.501 46.6378 165.814 46.7512 166.21 46.7512C166.606 46.7512 166.928 46.637 167.161 46.4093C167.395 46.1808 167.512 45.8975 167.512 45.558C167.512 45.2184 167.395 44.9264 167.161 44.6979C166.927 44.4694 166.611 44.356 166.21 44.356Z" fill="#37635A"/>
<path d="M176.829 55.9666C176.768 55.6492 176.737 55.2517 176.737 54.7733V50.892C176.737 50.1906 176.582 49.6067 176.273 49.1394C175.965 48.6721 175.539 48.3214 174.996 48.0873C174.453 47.8533 173.837 47.7366 173.148 47.7366C172.379 47.7366 171.711 47.8675 171.14 48.1286C170.57 48.3904 170.129 48.7363 169.818 49.1679C169.506 49.5995 169.35 50.0708 169.35 50.5826H171.646C171.646 50.3485 171.701 50.1486 171.812 49.9812C171.923 49.8146 172.084 49.6836 172.292 49.5892C172.501 49.4948 172.744 49.4472 173.023 49.4472C173.507 49.4472 173.863 49.5765 174.092 49.8352C174.32 50.0938 174.434 50.4406 174.434 50.8745V51.4172H173.307C171.949 51.4172 170.916 51.6759 170.206 52.194C169.497 52.7113 169.142 53.446 169.142 54.3973C169.142 54.9201 169.277 55.3866 169.547 55.7952C169.817 56.2046 170.184 56.5244 170.649 56.7552C171.114 56.9861 171.635 57.102 172.214 57.102C172.665 57.102 173.062 57.0321 173.404 56.8933C173.746 56.7545 174.038 56.5759 174.28 56.3593C174.371 56.2784 174.453 56.1943 174.531 56.1086C174.587 56.4379 174.665 56.714 174.768 56.9353H177.097V56.7933C176.98 56.5593 176.89 56.284 176.829 55.9666ZM173.682 55.0986C173.404 55.2486 173.075 55.3239 172.698 55.3239C172.32 55.3239 171.995 55.2184 171.775 55.0066C171.555 54.7947 171.445 54.5305 171.445 54.2132C171.445 53.7959 171.604 53.4539 171.925 53.1865C172.245 52.9191 172.741 52.7859 173.415 52.7859H174.433V54.3798C174.403 54.4345 174.369 54.4901 174.328 54.5472C174.175 54.7646 173.959 54.9479 173.681 55.0978L173.682 55.0986Z" fill="#37635A"/>
<path d="M91.4 57.125H85.67C84.7743 57.125 83.8896 57.0726 83.0209 56.9711C79.3665 56.5474 75.9756 55.2557 73.0551 53.3079C69.4856 50.9277 66.6199 47.5653 64.8387 43.6038L54.9109 21.6456C53.8065 18.975 53.1972 16.045 53.1972 12.9721C53.1972 8.14507 54.561 3.67187 57.1245 0L78.8611 47.7763C80.0972 50.4929 82.0109 52.8573 84.4522 54.5742C86.0041 55.6659 87.6567 56.4355 89.234 56.8457C89.96 57.0346 90.6288 57.0941 91.4 57.125Z" fill="#37635A"/>
<path d="M12.7689 52.7526C12.1556 51.5958 11.8073 50.2748 11.8073 48.8736C11.8073 48.7816 11.8089 48.6903 11.8121 48.5991C11.847 47.5272 11.8502 47.0964 12.139 45.7C11.4797 48.0056 10.9909 48.8887 10.9909 48.8887C8.83843 53.6745 5.54108 57.0282 0 57.125L19.9936 57.125C19.485 57.1083 18.7392 57.0449 18.2584 56.9394C15.8782 56.4165 13.8836 54.8551 12.7689 52.7526Z" fill="#37635A"/>
<path d="M63.551 57.125H29.9904C30.499 57.1083 30.9099 57.0449 31.3907 56.9393C33.7709 56.4165 35.7655 54.8559 36.8802 52.7534C37.4935 51.5966 37.8418 50.2756 37.8418 48.8744C37.8418 48.7824 37.8402 48.6911 37.8371 48.5999C37.8021 47.528 37.5641 46.5069 37.1595 45.5754C37.1309 45.508 26.3415 21.6464 26.3415 21.6464L26.3384 21.6385C25.2355 18.9703 24.6278 16.0426 24.6278 12.9729C24.6278 8.14587 25.9988 3.67187 28.5623 0L50.7971 48.8887C53.0258 53.8197 57.9409 57.1258 63.551 57.125Z" fill="#37635A"/>
</g>
<defs>
<clipPath id="clip0_62_120">
<rect width="177.097" height="57.125" fill="white"/>
</clipPath>
</defs>
</svg>
