<svg width="48" height="48" viewBox="0 0 48 48" fill="none" xmlns="http://www.w3.org/2000/svg">
<path d="M46 6.00009C44.0848 7.35105 41.9642 8.38431 39.72 9.06009C38.5155 7.67511 36.9147 6.69348 35.1341 6.24794C33.3535 5.80241 31.479 5.91448 29.7642 6.569C28.0493 7.22351 26.5769 8.38889 25.546 9.90753C24.515 11.4262 23.9754 13.2248 24 15.0601V17.0601C20.4853 17.1512 17.0025 16.3717 13.862 14.791C10.7215 13.2103 8.02063 10.8774 6 8.00009C6 8.00009 -2 26.0001 16 34.0001C11.8811 36.796 6.97431 38.198 2 38.0001C20 48.0001 42 38.0001 42 15.0001C41.9982 14.443 41.9446 13.8873 41.84 13.3401C43.8812 11.3271 45.3217 8.78552 46 6.00009Z" stroke="white" stroke-width="4" stroke-linecap="round" stroke-linejoin="round"/>
</svg>
