<?xml version="1.0" encoding="UTF-8"?>
<svg xmlns="http://www.w3.org/2000/svg" xmlns:xlink="http://www.w3.org/1999/xlink" viewBox="0 0 32 32" width="32px" height="32px">
<g id="surface17012068">
<path style=" stroke:none;fill-rule:nonzero;fill:rgb(100%,100%,100%);fill-opacity:1;" d="M 8.644531 4 C 7.183594 4 6 5.179688 6 6.640625 C 6 8.101562 7.183594 9.308594 8.640625 9.308594 C 10.097656 9.308594 11.285156 8.101562 11.285156 6.640625 C 11.285156 5.183594 10.101562 4 8.644531 4 Z M 21.535156 11 C 19.316406 11 18.046875 12.160156 17.4375 13.3125 L 17.375 13.3125 L 17.375 11.3125 L 13 11.3125 L 13 26 L 17.558594 26 L 17.558594 18.726562 C 17.558594 16.8125 17.703125 14.960938 20.074219 14.960938 C 22.410156 14.960938 22.441406 17.144531 22.441406 18.847656 L 22.441406 26 L 27 26 L 27 17.933594 C 27 13.984375 26.152344 11 21.535156 11 Z M 6.363281 11.3125 L 6.363281 26 L 10.925781 26 L 10.925781 11.3125 Z M 6.363281 11.3125 "/>
</g>
</svg>
